<svg xmlns="http://www.w3.org/2000/svg" viewBox="0 0 720 560"><rect width="720" height="560" fill="#dce5d2"/><circle cx="587" cy="93" r="38" fill="#f8e6ba"/><path d="M0 382q160-65 331-14t389-15v207H0" fill="#b8cba3"/><rect x="157" y="81" width="404" height="392" rx="22" fill="#b69b73"/><rect x="178" y="103" width="177" height="165" rx="9" fill="#f4ded0"/><rect x="369" y="103" width="170" height="165" rx="9" fill="#d4e3be"/><rect x="178" y="283" width="177" height="165" rx="9" fill="#d4e3be"/><rect x="369" y="283" width="170" height="165" rx="9" fill="#f4ded0"/><g transform="translate(211 123) scale(1.75)"><path d="M32 38v23m0-10q-19 0-17-12 14-2 17 12m0-5q18-2 17-13-15 0-17 13" stroke="#7e9d63" stroke-width="3" fill="#abc78b"/><g fill="#e7ae9d"><circle cx="22" cy="18" r="10"/><circle cx="42" cy="18" r="10"/><circle cx="32" cy="9" r="9"/><circle cx="19" cy="30" r="9"/><circle cx="45" cy="30" r="9"/><circle cx="32" cy="36" r="10"/></g><circle cx="32" cy="23" r="10" fill="#efd584"/></g><g transform="translate(394 121) scale(1.78125)"><path d="M51 7Q10 5 12 35q3 28 26 14Q56 39 51 7Z" fill="#9bb980"/><path d="m12 57 33-39M24 43l-3-15m11 5 13 1" fill="none" stroke="#638360" stroke-width="3" stroke-linecap="round"/></g><g transform="translate(211 306) scale(1.78125)"><path d="M51 7Q10 5 12 35q3 28 26 14Q56 39 51 7Z" fill="#9bb980"/><path d="m12 57 33-39M24 43l-3-15m11 5 13 1" fill="none" stroke="#638360" stroke-width="3" stroke-linecap="round"/></g><g transform="translate(398 304) scale(1.75)"><path d="M32 38v23m0-10q-19 0-17-12 14-2 17 12m0-5q18-2 17-13-15 0-17 13" stroke="#7e9d63" stroke-width="3" fill="#abc78b"/><g fill="#e7ae9d"><circle cx="22" cy="18" r="10"/><circle cx="42" cy="18" r="10"/><circle cx="32" cy="9" r="9"/><circle cx="19" cy="30" r="9"/><circle cx="45" cy="30" r="9"/><circle cx="32" cy="36" r="10"/></g><circle cx="32" cy="23" r="10" fill="#efd584"/></g><path d="M133 479h451" stroke="#a18560" stroke-width="17"/><path d="M568 161q57 50 0 111m0 0 7-27m-7 27 25-7" fill="none" stroke="#b59c70" stroke-width="6"/></svg>